{
  "accessors": [
    {
      "bufferView": 2,
      "componentType": 5126,
      "count": 843,
      "max": [
        -0.8566075563430786,
        0.8174997568130493,
        0.6908368468284607
      ],
      "min": [
        -1.0343172550201416,
        -0.8175157904624939,
        0.6652803421020508
      ],
      "type": "VEC3"
    },
    {
      "bufferView": 2,
      "byteOffset": 10116,
      "componentType": 5126,
      "count": 843,
      "max": [
        1.0,
        1.0,
        1.0
      ],
      "min": [
        -1.0,
        -1.0,
        -1.0
      ],
      "type": "VEC3"
    },
    {
      "bufferView": 3,
      "componentType": 5126,
      "count": 843,
      "max": [
        1.0,
        0.5972422361373901,
        1.0,
        1.0
      ],
      "min": [
        -1.0,
        -0.998943567276001,
        -1.0,
        1.0
      ],
      "type": "VEC4"
    },
    {
      "bufferView": 1,
      "componentType": 5126,
      "count": 843,
      "max": [
        0.14379127323627472,
        0.6052262187004089
      ],
      "min": [
        0.001953125,
        0.0019531312864273787
      ],
      "type": "VEC2"
    },
    {
      "bufferView": 0,
      "componentType": 5125,
      "count": 2040,
      "type": "SCALAR"
    },
    {
      "bufferView": 2,
      "byteOffset": 20232,
      "componentType": 5126,
      "count": 408,
      "max": [
        0.8534191846847534,
        0.0723925530910492,
        -1.453378438949585
      ],
      "min": [
        -0.8534219264984131,
        -0.44304710626602173,
        -1.4650089740753174
      ],
      "type": "VEC3"
    },
    {
      "bufferView": 2,
      "byteOffset": 25128,
      "componentType": 5126,
      "count": 408,
      "max": [
        1.0,
        0.9943435192108154,
        1.0
      ],
      "min": [
        -1.0,
        -1.0,
        -1.0
      ],
      "type": "VEC3"
    },
    {
      "bufferView": 3,
      "byteOffset": 13488,
      "componentType": 5126,
      "count": 408,
      "max": [
        1.0,
        1.0,
        1.0,
        1.0
      ],
      "min": [
        -1.0,
        -0.9473975896835327,
        -1.0,
        -1.0
      ],
      "type": "VEC4"
    },
    {
      "bufferView": 1,
      "byteOffset": 6744,
      "componentType": 5126,
      "count": 408,
      "max": [
        1.703465223312378,
        0.3998792767524719
      ],
      "min": [
        0.3410533666610718,
        0.001953125
      ],
      "type": "VEC2"
    },
    {
      "bufferView": 0,
      "byteOffset": 8160,
      "componentType": 5125,
      "count": 960,
      "type": "SCALAR"
    },
    {
      "bufferView": 2,
      "byteOffset": 30024,
      "componentType": 5126,
      "count": 192,
      "max": [
        0.044443756341934204,
        -1.4663381576538086,
        0.815501868724823
      ],
      "min": [
        -0.045556217432022095,
        -1.7489420175552368,
        -0.8155056834220886
      ],
      "type": "VEC3"
    },
    {
      "bufferView": 2,
      "byteOffset": 32328,
      "componentType": 5126,
      "count": 192,
      "max": [
        0.9991672039031982,
        0.9991281032562256,
        1.0
      ],
      "min": [
        -0.9991672039031982,
        -0.9991295337677002,
        -1.0
      ],
      "type": "VEC3"
    },
    {
      "bufferView": 3,
      "byteOffset": 20016,
      "componentType": 5126,
      "count": 192,
      "max": [
        1.0,
        0.999546468257904,
        0.9991830587387085,
        1.0
      ],
      "min": [
        -1.0,
        -0.9991751909255981,
        -0.9991830587387085,
        -1.0
      ],
      "type": "VEC4"
    },
    {
      "bufferView": 1,
      "byteOffset": 10008,
      "componentType": 5126,
      "count": 192,
      "max": [
        1.5636670589447021,
        0.930029034614563
      ],
      "min": [
        0.4826786518096924,
        0.8134123086929321
      ],
      "type": "VEC2"
    },
    {
      "bufferView": 0,
      "byteOffset": 12000,
      "componentType": 5125,
      "count": 264,
      "type": "SCALAR"
    },
    {
      "bufferView": 2,
      "byteOffset": 34632,
      "componentType": 5126,
      "count": 136,
      "max": [
        1.5550094842910767,
        0.04865381121635437,
        0.8410622477531433
      ],
      "min": [
        1.4650095701217651,
        -0.4430462718009949,
        -0.8410660624504089
      ],
      "type": "VEC3"
    },
    {
      "bufferView": 2,
      "byteOffset": 36264,
      "componentType": 5126,
      "count": 136,
      "max": [
        1.0,
        1.0,
        1.0
      ],
      "min": [
        -1.0,
        -1.0,
        -1.0
      ],
      "type": "VEC3"
    },
    {
      "bufferView": 3,
      "byteOffset": 23088,
      "componentType": 5126,
      "count": 136,
      "max": [
        1.0,
        1.0,
        1.0,
        1.0
      ],
      "min": [
        -1.0,
        -1.0,
        -1.0,
        -1.0
      ],
      "type": "VEC4"
    },
    {
      "bufferView": 1,
      "byteOffset": 11544,
      "componentType": 5126,
      "count": 136,
      "max": [
        1.5736303329467773,
        0.8090763688087463
      ],
      "min": [
        0.4926418960094452,
        0.6191383004188538
      ],
      "type": "VEC2"
    },
    {
      "bufferView": 0,
      "byteOffset": 13056,
      "componentType": 5125,
      "count": 264,
      "type": "SCALAR"
    },
    {
      "bufferView": 2,
      "byteOffset": 37896,
      "componentType": 5126,
      "count": 330,
      "max": [
        -0.5562208890914917,
        -0.9249287247657776,
        0.8157588839530945
      ],
      "min": [
        -0.6633043885231018,
        -1.657981514930725,
        -0.8157626986503601
      ],
      "type": "VEC3"
    },
    {
      "bufferView": 2,
      "byteOffset": 41856,
      "componentType": 5126,
      "count": 330,
      "max": [
        1.0,
        0.9649528861045837,
        1.0
      ],
      "min": [
        -0.9999988675117493,
        -1.0,
        -1.0
      ],
      "type": "VEC3"
    },
    {
      "bufferView": 3,
      "byteOffset": 25264,
      "componentType": 5126,
      "count": 330,
      "max": [
        1.0,
        0.6794976592063904,
        1.0,
        1.0
      ],
      "min": [
        -1.0,
        -0.9999998211860657,
        -1.0,
        -1.0
      ],
      "type": "VEC4"
    },
    {
      "bufferView": 1,
      "byteOffset": 12632,
      "componentType": 5126,
      "count": 330,
      "max": [
        1.4420865774154663,
        0.2752058804035187
      ],
      "min": [
        0.3496696352958679,
        0.0024049943313002586
      ],
      "type": "VEC2"
    },
    {
      "bufferView": 0,
      "byteOffset": 14112,
      "componentType": 5125,
      "count": 768,
      "type": "SCALAR"
    },
    {
      "bufferView": 2,
      "byteOffset": 45816,
      "componentType": 5126,
      "count": 96,
      "max": [
        1.7508069276809692,
        0.8409726619720459,
        -0.051338374614715576
      ],
      "min": [
        1.6448622941970825,
        -0.8415090441703796,
        -0.07681900262832642
      ],
      "type": "VEC3"
    },
    {
      "bufferView": 2,
      "byteOffset": 46968,
      "componentType": 5126,
      "count": 96,
      "max": [
        1.0,
        0.9995238184928894,
        1.0
      ],
      "min": [
        -1.0,
        -0.9995238184928894,
        -1.0
      ],
      "type": "VEC3"
    },
    {
      "bufferView": 3,
      "byteOffset": 30544,
      "componentType": 5126,
      "count": 96,
      "max": [
        1.0,
        0.9983764290809631,
        1.0,
        1.0
      ],
      "min": [
        -1.0,
        -0.9972574710845947,
        -1.0,
        1.0
      ],
      "type": "VEC4"
    },
    {
      "bufferView": 1,
      "byteOffset": 15272,
      "componentType": 5126,
      "count": 96,
      "max": [
        0.3367283344268799,
        0.6214805841445923
      ],
      "min": [
        0.24455761909484863,
        0.001953125
      ],
      "type": "VEC2"
    },
    {
      "bufferView": 0,
      "byteOffset": 17184,
      "componentType": 5125,
      "count": 132,
      "type": "SCALAR"
    },
    {
      "bufferView": 2,
      "byteOffset": 48120,
      "componentType": 5126,
      "count": 192,
      "max": [
        1.7508068084716797,
        0.0504896342754364,
        0.8410622477531433
      ],
      "min": [
        1.644862174987793,
        -0.4367755353450775,
        -0.8410660624504089
      ],
      "type": "VEC3"
    },
    {
      "bufferView": 2,
      "byteOffset": 50424,
      "componentType": 5126,
      "count": 192,
      "max": [
        1.0,
        0.9991441965103149,
        1.0
      ],
      "min": [
        -1.0,
        -0.9991429448127747,
        -1.0
      ],
      "type": "VEC3"
    },
    {
      "bufferView": 3,
      "byteOffset": 32080,
      "componentType": 5126,
      "count": 192,
      "max": [
        1.0,
        1.0,
        1.0,
        1.0
      ],
      "min": [
        -1.0,
        -1.0,
        -1.0,
        -1.0
      ],
      "type": "VEC4"
    },
    {
      "bufferView": 1,
      "byteOffset": 16040,
      "componentType": 5126,
      "count": 192,
      "max": [
        1.3277614116668701,
        0.8138487935066223
      ],
      "min": [
        0.23559071123600006,
        0.6254658699035645
      ],
      "type": "VEC2"
    },
    {
      "bufferView": 0,
      "byteOffset": 17712,
      "componentType": 5125,
      "count": 264,
      "type": "SCALAR"
    },
    {
      "bufferView": 2,
      "byteOffset": 52728,
      "componentType": 5126,
      "count": 336,
      "max": [
        0.7896606922149658,
        -1.0352177619934082,
        0.6908456683158875
      ],
      "min": [
        -0.8175196647644043,
        -1.5851662158966064,
        0.6652034521102905
      ],
      "type": "VEC3"
    },
    {
      "bufferView": 2,
      "byteOffset": 56760,
      "componentType": 5126,
      "count": 336,
      "max": [
        1.0,
        0.9999687075614929,
        1.0
      ],
      "min": [
        -1.0,
        -0.997110903263092,
        -1.0
      ],
      "type": "VEC3"
    },
    {
      "bufferView": 3,
      "byteOffset": 35152,
      "componentType": 5126,
      "count": 336,
      "max": [
        1.0,
        0.00028364115860313177,
        1.0,
        1.0
      ],
      "min": [
        -1.0,
        -0.00029725299100391567,
        -1.0,
        1.0
      ],
      "type": "VEC4"
    },
    {
      "bufferView": 1,
      "byteOffset": 17576,
      "componentType": 5126,
      "count": 336,
      "max": [
        0.8264233469963074,
        0.827484130859375
      ],
      "min": [
        0.016399798914790154,
        0.001953125
      ],
      "type": "VEC2"
    },
    {
      "bufferView": 0,
      "byteOffset": 18768,
      "componentType": 5125,
      "count": 504,
      "type": "SCALAR"
    },
    {
      "bufferView": 2,
      "byteOffset": 60792,
      "componentType": 5126,
      "count": 1344,
      "max": [
        0.7896605730056763,
        0.04989159107208252,
        -1.6457802057266235
      ],
      "min": [
        -0.8175197839736938,
        -0.4097711443901062,
        -1.6712608337402344
      ],
      "type": "VEC3"
    },
    {
      "bufferView": 2,
      "byteOffset": 76920,
      "componentType": 5126,
      "count": 1344,
      "max": [
        1.0,
        0.9994480013847351,
        1.0
      ],
      "min": [
        -1.0,
        -0.9994485974311829,
        -1.0
      ],
      "type": "VEC3"
    },
    {
      "bufferView": 3,
      "byteOffset": 40528,
      "componentType": 5126,
      "count": 1344,
      "max": [
        1.0,
        0.998513400554657,
        1.0,
        1.0
      ],
      "min": [
        -1.0,
        -0.9974135756492615,
        -1.0,
        1.0
      ],
      "type": "VEC4"
    },
    {
      "bufferView": 1,
      "byteOffset": 20264,
      "componentType": 5126,
      "count": 1344,
      "max": [
        0.9584335088729858,
        0.9980215430259705
      ],
      "min": [
        0.0023037786595523357,
        0.0022792837116867304
      ],
      "type": "VEC2"
    },
    {
      "bufferView": 0,
      "byteOffset": 20784,
      "componentType": 5125,
      "count": 1848,
      "type": "SCALAR"
    },
    {
      "bufferView": 2,
      "byteOffset": 93048,
      "componentType": 5126,
      "count": 161,
      "max": [
        6.342650471675981e-15,
        0.09999999403953552,
        1.184355616569519
      ],
      "min": [
        -2.200000047683716,
        -0.09999999403953552,
        -1.1843549013137817
      ],
      "type": "VEC3"
    },
    {
      "bufferView": 2,
      "byteOffset": 94980,
      "componentType": 5126,
      "count": 161,
      "max": [
        1.0,
        1.0,
        1.0
      ],
      "min": [
        -1.0,
        -1.0,
        -1.0
      ],
      "type": "VEC3"
    },
    {
      "bufferView": 3,
      "byteOffset": 62032,
      "componentType": 5126,
      "count": 161,
      "max": [
        1.0,
        0.9054276347160339,
        0.9999998807907104,
        1.0
      ],
      "min": [
        -1.0,
        -0.9438836574554443,
        -0.9999244213104248,
        1.0
      ],
      "type": "VEC4"
    },
    {
      "bufferView": 1,
      "byteOffset": 31016,
      "componentType": 5126,
      "count": 161,
      "max": [
        0.998046875,
        0.8241384029388428
      ],
      "min": [
        0.001953125,
        0.001953125
      ],
      "type": "VEC2"
    },
    {
      "bufferView": 0,
      "byteOffset": 28176,
      "componentType": 5125,
      "count": 324,
      "type": "SCALAR"
    },
    {
      "bufferView": 2,
      "byteOffset": 96912,
      "componentType": 5126,
      "count": 658,
      "max": [
        0.008471250534057617,
        0.8837929964065552,
        0.019450727850198746
      ],
      "min": [
        -0.05556440353393555,
        -0.8837931156158447,
        -0.019450731575489044
      ],
      "type": "VEC3"
    },
    {
      "bufferView": 2,
      "byteOffset": 104808,
      "componentType": 5126,
      "count": 658,
      "max": [
        0.9996176362037659,
        0.9999933242797852,
        0.9619297385215759
      ],
      "min": [
        -0.9996210932731628,
        -0.9999933242797852,
        -0.9619297981262207
      ],
      "type": "VEC3"
    },
    {
      "bufferView": 3,
      "byteOffset": 64608,
      "componentType": 5126,
      "count": 658,
      "max": [
        0.9570447206497192,
        0.9636383652687073,
        1.0,
        1.0
      ],
      "min": [
        -0.9572812914848328,
        -0.9630708694458008,
        -1.0,
        1.0
      ],
      "type": "VEC4"
    },
    {
      "bufferView": 1,
      "byteOffset": 32304,
      "componentType": 5126,
      "count": 658,
      "max": [
        1.1357402801513672,
        0.038732193410396576
      ],
      "min": [
        0.06870672106742859,
        0.001953125
      ],
      "type": "VEC2"
    },
    {
      "bufferView": 0,
      "byteOffset": 29472,
      "componentType": 5125,
      "count": 3408,
      "type": "SCALAR"
    },
    {
      "bufferView": 2,
      "byteOffset": 112704,
      "componentType": 5126,
      "count": 658,
      "max": [
        0.883917510509491,
        -1.7274270057678223,
        0.06765459477901459
      ],
      "min": [
        -0.8839157223701477,
        -1.7570487260818481,
        0.06216563284397125
      ],
      "type": "VEC3"
    },
    {
      "bufferView": 2,
      "byteOffset": 120600,
      "componentType": 5126,
      "count": 658,
      "max": [
        0.9996210932731628,
        0.999992847442627,
        0.961933970451355
      ],
      "min": [
        -0.9996210932731628,
        -0.9999933242797852,
        -0.9619341492652893
      ],
      "type": "VEC3"
    },
    {
      "bufferView": 3,
      "byteOffset": 75136,
      "componentType": 5126,
      "count": 658,
      "max": [
        0.9570811986923218,
        0.9651904702186584,
        0.9999958872795105,
        1.0
      ],
      "min": [
        -0.9572954773902893,
        -0.9648667573928833,
        -1.0,
        -1.0
      ],
      "type": "VEC4"
    },
    {
      "bufferView": 1,
      "byteOffset": 37568,
      "componentType": 5126,
      "count": 658,
      "max": [
        1.1357402801513672,
        0.038732193410396576
      ],
      "min": [
        0.08116075396537781,
        0.001953125
      ],
      "type": "VEC2"
    },
    {
      "bufferView": 0,
      "byteOffset": 43104,
      "componentType": 5125,
      "count": 3408,
      "type": "SCALAR"
    },
    {
      "bufferView": 2,
      "byteOffset": 128496,
      "componentType": 5126,
      "count": 658,
      "max": [
        0.8839179873466492,
        -1.6792007684707642,
        -0.12828794121742249
      ],
      "min": [
        -0.8839152455329895,
        -1.70882248878479,
        -0.1337769329547882
      ],
      "type": "VEC3"
    },
    {
      "bufferView": 2,
      "byteOffset": 136392,
      "componentType": 5126,
      "count": 658,
      "max": [
        0.9996208548545837,
        0.999992847442627,
        0.9619236588478088
      ],
      "min": [
        -0.9996208548545837,
        -0.9999933242797852,
        -0.9619237184524536
      ],
      "type": "VEC3"
    },
    {
      "bufferView": 3,
      "byteOffset": 85664,
      "componentType": 5126,
      "count": 658,
      "max": [
        0.9570831060409546,
        0.9651806950569153,
        0.9999959468841553,
        1.0
      ],
      "min": [
        -0.9572956562042236,
        -0.964855968952179,
        -1.0,
        -1.0
      ],
      "type": "VEC4"
    },
    {
      "bufferView": 1,
      "byteOffset": 42832,
      "componentType": 5126,
      "count": 658,
      "max": [
        1.1357402801513672,
        0.038732193410396576
      ],
      "min": [
        0.07518281787633896,
        0.001953125
      ],
      "type": "VEC2"
    },
    {
      "bufferView": 0,
      "byteOffset": 56736,
      "componentType": 5125,
      "count": 3408,
      "type": "SCALAR"
    },
    {
      "bufferView": 2,
      "byteOffset": 144288,
      "componentType": 5126,
      "count": 32340,
      "max": [
        0.8800763487815857,
        0.25532403588294983,
        -0.042189598083496094
      ],
      "min": [
        -0.8800804018974304,
        -0.007377654314041138,
        -1.6759679317474365
      ],
      "type": "VEC3"
    },
    {
      "bufferView": 2,
      "byteOffset": 532368,
      "componentType": 5126,
      "count": 32340,
      "max": [
        0.9995968341827393,
        0.999631404876709,
        0.998574435710907
      ],
      "min": [
        -0.9995967745780945,
        -0.9996314644813538,
        -0.998573362827301
      ],
      "type": "VEC3"
    },
    {
      "bufferView": 3,
      "byteOffset": 96192,
      "componentType": 5126,
      "count": 32340,
      "max": [
        0.9999718070030212,
        0.9999745488166809,
        0.9994716048240662,
        1.0
      ],
      "min": [
        -0.9999873042106628,
        -0.9998518228530884,
        -0.99985271692276,
        -1.0
      ],
      "type": "VEC4"
    },
    {
      "bufferView": 1,
      "byteOffset": 48096,
      "componentType": 5126,
      "count": 32340,
      "max": [
        1.0072342157363892,
        0.06974347680807114
      ],
      "min": [
        0.001953125,
        0.04846331477165222
      ],
      "type": "VEC2"
    },
    {
      "bufferView": 0,
      "byteOffset": 70368,
      "componentType": 5125,
      "count": 164640,
      "type": "SCALAR"
    },
    {
      "bufferView": 2,
      "byteOffset": 920448,
      "componentType": 5126,
      "count": 33330,
      "max": [
        0.8799642324447632,
        0.010695815086364746,
        -0.04280877113342285
      ],
      "min": [
        -0.8799682855606079,
        -0.12705576419830322,
        -1.7341203689575195
      ],
      "type": "VEC3"
    },
    {
      "bufferView": 2,
      "byteOffset": 1320408,
      "componentType": 5126,
      "count": 33330,
      "max": [
        0.999317467212677,
        0.9996640682220459,
        0.9997745156288147
      ],
      "min": [
        -0.9993178248405457,
        -0.9996641278266907,
        -0.9998174905776978
      ],
      "type": "VEC3"
    },
    {
      "bufferView": 3,
      "byteOffset": 613632,
      "componentType": 5126,
      "count": 33330,
      "max": [
        1.0,
        0.9999779462814331,
        0.999982476234436,
        1.0
      ],
      "min": [
        -1.0,
        -0.9999515414237976,
        -0.9999822974205017,
        -1.0
      ],
      "type": "VEC4"
    },
    {
      "bufferView": 1,
      "byteOffset": 306816,
      "componentType": 5126,
      "count": 33330,
      "max": [
        1.0072342157363892,
        0.06974347680807114
      ],
      "min": [
        0.001953125,
        0.04846331477165222
      ],
      "type": "VEC2"
    },
    {
      "bufferView": 0,
      "byteOffset": 728928,
      "componentType": 5125,
      "count": 169680,
      "type": "SCALAR"
    },
    {
      "bufferView": 2,
      "byteOffset": 1720368,
      "componentType": 5126,
      "count": 96,
      "max": [
        1.7508069276809692,
        0.8409726619720459,
        0.4618677496910095
      ],
      "min": [
        1.6448622941970825,
        -0.8415090441703796,
        0.4363871216773987
      ],
      "type": "VEC3"
    },
    {
      "bufferView": 2,
      "byteOffset": 1721520,
      "componentType": 5126,
      "count": 96,
      "max": [
        1.0,
        0.9974897503852844,
        1.0
      ],
      "min": [
        -1.0,
        -0.9974897503852844,
        -1.0
      ],
      "type": "VEC3"
    },
    {
      "bufferView": 3,
      "byteOffset": 1146912,
      "componentType": 5126,
      "count": 96,
      "max": [
        1.0,
        0.09340092539787292,
        1.0,
        1.0
      ],
      "min": [
        -1.0,
        -0.7779507040977478,
        -1.0,
        1.0
      ],
      "type": "VEC4"
    },
    {
      "bufferView": 1,
      "byteOffset": 573456,
      "componentType": 5126,
      "count": 96,
      "max": [
        0.24058322608470917,
        0.6218018531799316
      ],
      "min": [
        0.14876314997673035,
        0.001953125
      ],
      "type": "VEC2"
    },
    {
      "bufferView": 0,
      "byteOffset": 1407648,
      "componentType": 5125,
      "count": 132,
      "type": "SCALAR"
    }
  ],
  "asset": {
    "extras": {
      "author": "Maho_Itz (https://sketchfab.com/Maho_Itz)",
      "license": "CC-BY-4.0 (http://creativecommons.org/licenses/by/4.0/)",
      "source": "https://sketchfab.com/3d-models/wooden-bench-swing-c88d76ad794b468580b618957a500bd8",
      "title": "Wooden Bench Swing"
    },
    "generator": "Sketchfab-15.36.0",
    "version": "2.0"
  },
  "bufferViews": [
    {
      "buffer": 0,
      "byteLength": 1408176,
      "name": "floatBufferViews",
      "target": 34963
    },
    {
      "buffer": 0,
      "byteLength": 574224,
      "byteOffset": 1408176,
      "byteStride": 8,
      "name": "floatBufferViews",
      "target": 34962
    },
    {
      "buffer": 0,
      "byteLength": 1722672,
      "byteOffset": 1982400,
      "byteStride": 12,
      "name": "floatBufferViews",
      "target": 34962
    },
    {
      "buffer": 0,
      "byteLength": 1148448,
      "byteOffset": 3705072,
      "byteStride": 16,
      "name": "floatBufferViews",
      "target": 34962
    }
  ],
  "buffers": [
    {
      "byteLength": 4853520,
      "uri": "scene.bin"
    }
  ],
  "images": [
    {
      "uri": "textures/Swing_baseColor.png"
    },
    {
      "uri": "textures/Swing_metallicRoughness.png"
    },
    {
      "uri": "textures/Swing_normal.png"
    },
    {
      "uri": "textures/Column_baseColor.png"
    },
    {
      "uri": "textures/Column_metallicRoughness.png"
    },
    {
      "uri": "textures/Column_normal.png"
    }
  ],
  "materials": [
    {
      "doubleSided": true,
      "name": "Swing",
      "normalTexture": {
        "index": 2
      },
      "occlusionTexture": {
        "index": 1
      },
      "pbrMetallicRoughness": {
        "baseColorTexture": {
          "index": 0
        },
        "metallicRoughnessTexture": {
          "index": 1
        }
      }
    },
    {
      "doubleSided": true,
      "name": "Column",
      "normalTexture": {
        "index": 5
      },
      "occlusionTexture": {
        "index": 4
      },
      "pbrMetallicRoughness": {
        "baseColorTexture": {
          "index": 3
        },
        "metallicFactor": 0.0,
        "metallicRoughnessTexture": {
          "index": 4
        }
      }
    }
  ],
  "meshes": [
    {
      "name": "Wooden_Planks_Swing_0",
      "primitives": [
        {
          "attributes": {
            "NORMAL": 1,
            "POSITION": 0,
            "TANGENT": 2,
            "TEXCOORD_0": 3
          },
          "indices": 4,
          "material": 0,
          "mode": 4
        }
      ]
    },
    {
      "name": "Wooden_Planks.001_Swing_0",
      "primitives": [
        {
          "attributes": {
            "NORMAL": 6,
            "POSITION": 5,
            "TANGENT": 7,
            "TEXCOORD_0": 8
          },
          "indices": 9,
          "material": 0,
          "mode": 4
        }
      ]
    },
    {
      "name": "Wooden_Planks.002_Swing_0",
      "primitives": [
        {
          "attributes": {
            "NORMAL": 11,
            "POSITION": 10,
            "TANGENT": 12,
            "TEXCOORD_0": 13
          },
          "indices": 14,
          "material": 0,
          "mode": 4
        }
      ]
    },
    {
      "name": "Wooden_Planks.003_Swing_0",
      "primitives": [
        {
          "attributes": {
            "NORMAL": 16,
            "POSITION": 15,
            "TANGENT": 17,
            "TEXCOORD_0": 18
          },
          "indices": 19,
          "material": 0,
          "mode": 4
        }
      ]
    },
    {
      "name": "Wooden_Planks.004_Swing_0",
      "primitives": [
        {
          "attributes": {
            "NORMAL": 21,
            "POSITION": 20,
            "TANGENT": 22,
            "TEXCOORD_0": 23
          },
          "indices": 24,
          "material": 0,
          "mode": 4
        }
      ]
    },
    {
      "name": "Wooden_Planks.005_Swing_0",
      "primitives": [
        {
          "attributes": {
            "NORMAL": 26,
            "POSITION": 25,
            "TANGENT": 27,
            "TEXCOORD_0": 28
          },
          "indices": 29,
          "material": 0,
          "mode": 4
        }
      ]
    },
    {
      "name": "Wooden_Planks.006_Swing_0",
      "primitives": [
        {
          "attributes": {
            "NORMAL": 31,
            "POSITION": 30,
            "TANGENT": 32,
            "TEXCOORD_0": 33
          },
          "indices": 34,
          "material": 0,
          "mode": 4
        }
      ]
    },
    {
      "name": "Wooden_Planks.007_Swing_0",
      "primitives": [
        {
          "attributes": {
            "NORMAL": 36,
            "POSITION": 35,
            "TANGENT": 37,
            "TEXCOORD_0": 38
          },
          "indices": 39,
          "material": 0,
          "mode": 4
        }
      ]
    },
    {
      "name": "Wooden_Planks.008_Swing_0",
      "primitives": [
        {
          "attributes": {
            "NORMAL": 41,
            "POSITION": 40,
            "TANGENT": 42,
            "TEXCOORD_0": 43
          },
          "indices": 44,
          "material": 0,
          "mode": 4
        }
      ]
    },
    {
      "name": "Column_Column_0",
      "primitives": [
        {
          "attributes": {
            "NORMAL": 46,
            "POSITION": 45,
            "TANGENT": 47,
            "TEXCOORD_0": 48
          },
          "indices": 49,
          "material": 1,
          "mode": 4
        }
      ]
    },
    {
      "name": "Bolts.001_Swing_0",
      "primitives": [
        {
          "attributes": {
            "NORMAL": 51,
            "POSITION": 50,
            "TANGENT": 52,
            "TEXCOORD_0": 53
          },
          "indices": 54,
          "material": 0,
          "mode": 4
        }
      ]
    },
    {
      "name": "Bolts_Swing_0",
      "primitives": [
        {
          "attributes": {
            "NORMAL": 56,
            "POSITION": 55,
            "TANGENT": 57,
            "TEXCOORD_0": 58
          },
          "indices": 59,
          "material": 0,
          "mode": 4
        }
      ]
    },
    {
      "name": "Bolts.002_Swing_0",
      "primitives": [
        {
          "attributes": {
            "NORMAL": 61,
            "POSITION": 60,
            "TANGENT": 62,
            "TEXCOORD_0": 63
          },
          "indices": 64,
          "material": 0,
          "mode": 4
        }
      ]
    },
    {
      "name": "Chain.001_Swing_0",
      "primitives": [
        {
          "attributes": {
            "NORMAL": 66,
            "POSITION": 65,
            "TANGENT": 67,
            "TEXCOORD_0": 68
          },
          "indices": 69,
          "material": 0,
          "mode": 4
        }
      ]
    },
    {
      "name": "Chain_Swing_0",
      "primitives": [
        {
          "attributes": {
            "NORMAL": 71,
            "POSITION": 70,
            "TANGENT": 72,
            "TEXCOORD_0": 73
          },
          "indices": 74,
          "material": 0,
          "mode": 4
        }
      ]
    },
    {
      "name": "Wooden_Planks.009_Swing_0",
      "primitives": [
        {
          "attributes": {
            "NORMAL": 76,
            "POSITION": 75,
            "TANGENT": 77,
            "TEXCOORD_0": 78
          },
          "indices": 79,
          "material": 0,
          "mode": 4
        }
      ]
    }
  ],
  "nodes": [
    {
      "children": [
        1
      ],
      "matrix": [
        -1.0,
        -6.290011496532519e-32,
        2.832769343193999e-16,
        0.0,
        2.832769343193999e-16,
        -2.220446049250313e-16,
        1.0,
        0.0,
        0.0,
        1.0,
        2.220446049250313e-16,
        0.0,
        0.0,
        0.0,
        0.0,
        1.0
      ],
      "name": "Sketchfab_model"
    },
    {
      "children": [
        2
      ],
      "matrix": [
        0.009999999776482582,
        0.0,
        0.0,
        0.0,
        0.0,
        0.0,
        0.009999999776482582,
        0.0,
        0.0,
        -0.009999999776482582,
        0.0,
        0.0,
        0.0,
        0.0,
        0.0,
        1.0
      ],
      "name": "0b05260147d8497e9b42b32ed0d780c1.fbx"
    },
    {
      "children": [
        3,
        5,
        7,
        9,
        11,
        13,
        15,
        17,
        19,
        21,
        23,
        25,
        27,
        29,
        31,
        33
      ],
      "name": "RootNode"
    },
    {
      "children": [
        4
      ],
      "matrix": [
        -4.16234055441013e-06,
        95.22324837378537,
        30.537377805985873,
        0.0,
        -99.99999999999858,
        -8.96104381808982e-06,
        1.4312481250167153e-05,
        0.0,
        1.6365277372572667e-05,
        -30.53737780598484,
        95.22324837378437,
        0.0,
        0.00019967553089372814,
        201.249267578125,
        2.561137080192566e-07,
        1.0
      ],
      "name": "Wooden_Planks"
    },
    {
      "mesh": 0,
      "name": "Wooden_Planks_Swing_0"
    },
    {
      "children": [
        6
      ],
      "matrix": [
        99.99999999998938,
        -3.258413130424511e-05,
        -3.2584134146417775e-05,
        0.0,
        -2.728717825877536e-05,
        15.108345078808917,
        -98.85210118646384,
        0.0,
        3.7133021875385426e-05,
        98.85210118646225,
        15.108345078798413,
        0.0,
        0.0001996755599975586,
        201.24928283691406,
        2.561137080192566e-07,
        1.0
      ],
      "name": "Wooden_Planks.001"
    },
    {
      "mesh": 1,
      "name": "Wooden_Planks.001_Swing_0"
    },
    {
      "children": [
        8
      ],
      "matrix": [
        -4.262506666611043e-06,
        15.108308573858844,
        -98.85209904781081,
        0.0,
        3.238551110560867e-07,
        98.8520990478109,
        15.108308573858844,
        0.0,
        99.99999999999991,
        3.238551357642727e-07,
        -4.262506991814519e-06,
        0.0,
        0.0001996755599975586,
        201.249267578125,
        -2.724129899434047e-06,
        1.0
      ],
      "name": "Wooden_Planks.002"
    },
    {
      "mesh": 2,
      "name": "Wooden_Planks.002_Swing_0"
    },
    {
      "children": [
        10
      ],
      "matrix": [
        -4.320962679955279e-06,
        -98.85209973819349,
        -15.108304056755724,
        0.0,
        -3.710733681439375e-06,
        15.108304056755875,
        -98.8520997381935,
        0.0,
        99.99999999999984,
        -3.7107339700970243e-06,
        -4.320963009618595e-06,
        0.0,
        0.0001996755599975586,
        201.24928283691406,
        -2.7241185307502747e-06,
        1.0
      ],
      "name": "Wooden_Planks.003"
    },
    {
      "mesh": 3,
      "name": "Wooden_Planks.003_Swing_0"
    },
    {
      "children": [
        12
      ],
      "matrix": [
        -4.9407799185274826e-06,
        30.32629103380607,
        -95.29069247378187,
        0.0,
        1.268817253485821e-05,
        95.29069247378142,
        30.326291033805262,
        0.0,
        99.99999999999908,
        -1.0592292171152096e-05,
        -8.555955544053973e-06,
        0.0,
        0.0001996755599975586,
        201.249267578125,
        2.5610233933548443e-07,
        1.0
      ],
      "name": "Wooden_Planks.004"
    },
    {
      "mesh": 4,
      "name": "Wooden_Planks.004_Swing_0"
    },
    {
      "children": [
        14
      ],
      "matrix": [
        -4.320962613341903e-06,
        -98.85209861253684,
        -15.108311421811033,
        0.0,
        99.99999999999591,
        -8.546159624422955e-06,
        2.7316722511772085e-05,
        0.0,
        -2.8294333883491822e-05,
        -15.108311421809232,
        98.85209861253315,
        0.0,
        0.0001996755599975586,
        201.24928283691406,
        -2.7241185307502747e-06,
        1.0
      ],
      "name": "Wooden_Planks.005"
    },
    {
      "mesh": 5,
      "name": "Wooden_Planks.005_Swing_0"
    },
    {
      "children": [
        16
      ],
      "matrix": [
        -4.320962679955279e-06,
        -98.85209973819349,
        -15.108304056755724,
        0.0,
        -3.710733681439375e-06,
        15.108304056755875,
        -98.8520997381935,
        0.0,
        99.99999999999984,
        -3.7107339700970243e-06,
        -4.320963009618595e-06,
        0.0,
        0.0001996755599975586,
        201.24928283691406,
        -2.7241185307502747e-06,
        1.0
      ],
      "name": "Wooden_Planks.006"
    },
    {
      "mesh": 6,
      "name": "Wooden_Planks.006_Swing_0"
    },
    {
      "children": [
        18
      ],
      "matrix": [
        100.0,
        -2.131265920700849e-15,
        -4.0792101715322867e-16,
        0.0,
        2.154029187672301e-15,
        95.22325563874331,
        30.537380135803083,
        0.0,
        -2.623971029412607e-16,
        -30.537380135803083,
        95.22325563874331,
        0.0,
        0.0001996755599975586,
        201.249267578125,
        -5.704350769519806e-06,
        1.0
      ],
      "name": "Wooden_Planks.007"
    },
    {
      "mesh": 7,
      "name": "Wooden_Planks.007_Swing_0"
    },
    {
      "children": [
        20
      ],
      "matrix": [
        100.0,
        0.0,
        0.0,
        0.0,
        0.0,
        15.108310879204566,
        -98.85211413144523,
        0.0,
        0.0,
        98.85211413144523,
        15.108310879204566,
        0.0,
        0.0001996755599975586,
        201.249267578125,
        2.5611086584831355e-07,
        1.0
      ],
      "name": "Wooden_Planks.008"
    },
    {
      "mesh": 8,
      "name": "Wooden_Planks.008_Swing_0"
    },
    {
      "children": [
        22
      ],
      "matrix": [
        -4.371138984105016e-06,
        -99.99999999999973,
        5.960463766996327e-06,
        0.0,
        -1.6292068227841128e-05,
        -5.960463056453591e-06,
        -99.9999999999985,
        0.0,
        99.99999999999858,
        -4.371139955550163e-06,
        -1.6292067961387602e-05,
        0.0,
        -3.222376108169556e-05,
        -1.9317880628477724e-12,
        2.4097971618175507e-05,
        1.0
      ],
      "name": "Column"
    },
    {
      "mesh": 9,
      "name": "Column_Column_0"
    },
    {
      "children": [
        24
      ],
      "matrix": [
        9.099629265651998e-05,
        99.9999999999586,
        -4.968025903856477e-09,
        0.0,
        99.98793908781748,
        -9.098524052790925e-05,
        1.5525820698997355,
        0.0,
        1.5525820698990882,
        -1.417759550638218e-06,
        -99.98793908785888,
        0.0,
        0.00019967558910138905,
        201.249267578125,
        -2.6776092454383615e-08,
        1.0
      ],
      "name": "Bolts.001"
    },
    {
      "mesh": 10,
      "name": "Bolts.001_Swing_0"
    },
    {
      "children": [
        26
      ],
      "matrix": [
        -99.99999999998295,
        5.642598354230463e-05,
        1.5099579909783709e-05,
        0.0,
        5.4536124913526355e-05,
        99.45098194054492,
        -10.464329460526061,
        0.0,
        -2.0921281308386113e-05,
        -10.46432946051604,
        -99.45098194055872,
        0.0,
        0.0001996755599975586,
        201.249267578125,
        1.7462298274040222e-06,
        1.0
      ],
      "name": "Bolts"
    },
    {
      "mesh": 11,
      "name": "Bolts_Swing_0"
    },
    {
      "children": [
        28
      ],
      "matrix": [
        -99.99999999998712,
        3.2584131316490835e-05,
        3.894143777553011e-05,
        0.0,
        4.0401758559824073e-05,
        97.51496401345337,
        22.154689516542867,
        0.0,
        -3.0754815908298366e-05,
        22.154689516555745,
        -97.51496401345398,
        0.0,
        0.0001996755599975586,
        201.249267578125,
        3.2363432183046825e-06,
        1.0
      ],
      "name": "Bolts.002"
    },
    {
      "mesh": 12,
      "name": "Bolts.002_Swing_0"
    },
    {
      "children": [
        30
      ],
      "matrix": [
        100.0,
        0.0,
        0.0,
        0.0,
        0.0,
        -1.629206793918314e-05,
        -99.99999999999868,
        0.0,
        0.0,
        99.99999999999868,
        -1.629206793918314e-05,
        0.0,
        0.0001996755599975586,
        201.249267578125,
        -2.6776092454383615e-08,
        1.0
      ],
      "name": "Chain.001"
    },
    {
      "mesh": 13,
      "name": "Chain.001_Swing_0"
    },
    {
      "children": [
        32
      ],
      "matrix": [
        100.0,
        0.0,
        0.0,
        0.0,
        0.0,
        -1.629206793918314e-05,
        -99.99999999999868,
        0.0,
        0.0,
        99.99999999999868,
        -1.629206793918314e-05,
        0.0,
        0.0001996755599975586,
        201.249267578125,
        -2.6776092454383615e-08,
        1.0
      ],
      "name": "Chain"
    },
    {
      "mesh": 14,
      "name": "Chain_Swing_0"
    },
    {
      "children": [
        34
      ],
      "matrix": [
        -4.320962613341903e-06,
        -98.85209861253684,
        -15.108311421811033,
        0.0,
        99.99999999999591,
        -8.546159624422955e-06,
        2.7316722511772085e-05,
        0.0,
        -2.8294333883491822e-05,
        -15.108311421809232,
        98.85209861253315,
        0.0,
        0.0001996755599975586,
        201.24928283691406,
        -2.9802322387695313e-06,
        1.0
      ],
      "name": "Wooden_Planks.009"
    },
    {
      "mesh": 15,
      "name": "Wooden_Planks.009_Swing_0"
    }
  ],
  "samplers": [
    {
      "magFilter": 9729,
      "minFilter": 9987,
      "wrapS": 10497,
      "wrapT": 10497
    }
  ],
  "scene": 0,
  "scenes": [
    {
      "name": "Sketchfab_Scene",
      "nodes": [
        0
      ]
    }
  ],
  "textures": [
    {
      "sampler": 0,
      "source": 0
    },
    {
      "sampler": 0,
      "source": 1
    },
    {
      "sampler": 0,
      "source": 2
    },
    {
      "sampler": 0,
      "source": 3
    },
    {
      "sampler": 0,
      "source": 4
    },
    {
      "sampler": 0,
      "source": 5
    }
  ]
}
