{
  "accessors": [
    {
      "bufferView": 2,
      "componentType": 5126,
      "count": 24,
      "max": [
        21.54265594482422,
        2.0,
        0.75
      ],
      "min": [
        -21.54265594482422,
        -2.0,
        -0.75
      ],
      "type": "VEC3"
    },
    {
      "bufferView": 2,
      "byteOffset": 288,
      "componentType": 5126,
      "count": 24,
      "max": [
        1.0,
        1.0,
        1.0
      ],
      "min": [
        -1.0,
        -1.0,
        -1.0
      ],
      "type": "VEC3"
    },
    {
      "bufferView": 1,
      "componentType": 5126,
      "count": 24,
      "max": [
        1.0,
        1.0
      ],
      "min": [
        0.0,
        0.0
      ],
      "type": "VEC2"
    },
    {
      "bufferView": 0,
      "componentType": 5125,
      "count": 36,
      "type": "SCALAR"
    },
    {
      "bufferView": 2,
      "byteOffset": 576,
      "componentType": 5126,
      "count": 24,
      "max": [
        21.54265594482422,
        2.0,
        0.75
      ],
      "min": [
        -21.54265594482422,
        -2.0,
        -0.75
      ],
      "type": "VEC3"
    },
    {
      "bufferView": 2,
      "byteOffset": 864,
      "componentType": 5126,
      "count": 24,
      "max": [
        1.0,
        1.0,
        1.0
      ],
      "min": [
        -1.0,
        -1.0,
        -1.0
      ],
      "type": "VEC3"
    },
    {
      "bufferView": 1,
      "byteOffset": 192,
      "componentType": 5126,
      "count": 24,
      "max": [
        1.0,
        1.0
      ],
      "min": [
        0.0,
        0.0
      ],
      "type": "VEC2"
    },
    {
      "bufferView": 0,
      "byteOffset": 144,
      "componentType": 5125,
      "count": 36,
      "type": "SCALAR"
    },
    {
      "bufferView": 2,
      "byteOffset": 1152,
      "componentType": 5126,
      "count": 24,
      "max": [
        43.340904235839844,
        2.0,
        0.75
      ],
      "min": [
        -43.340904235839844,
        -2.0,
        -0.75
      ],
      "type": "VEC3"
    },
    {
      "bufferView": 2,
      "byteOffset": 1440,
      "componentType": 5126,
      "count": 24,
      "max": [
        1.0,
        1.0,
        1.0
      ],
      "min": [
        -1.0,
        -1.0,
        -1.0
      ],
      "type": "VEC3"
    },
    {
      "bufferView": 1,
      "byteOffset": 384,
      "componentType": 5126,
      "count": 24,
      "max": [
        1.0,
        1.0
      ],
      "min": [
        0.0,
        0.0
      ],
      "type": "VEC2"
    },
    {
      "bufferView": 0,
      "byteOffset": 288,
      "componentType": 5125,
      "count": 36,
      "type": "SCALAR"
    },
    {
      "bufferView": 2,
      "byteOffset": 1728,
      "componentType": 5126,
      "count": 24,
      "max": [
        43.340904235839844,
        2.0,
        0.75
      ],
      "min": [
        -43.340904235839844,
        -2.0,
        -0.75
      ],
      "type": "VEC3"
    },
    {
      "bufferView": 2,
      "byteOffset": 2016,
      "componentType": 5126,
      "count": 24,
      "max": [
        1.0,
        1.0,
        1.0
      ],
      "min": [
        -1.0,
        -1.0,
        -1.0
      ],
      "type": "VEC3"
    },
    {
      "bufferView": 1,
      "byteOffset": 576,
      "componentType": 5126,
      "count": 24,
      "max": [
        1.0,
        1.0
      ],
      "min": [
        0.0,
        0.0
      ],
      "type": "VEC2"
    },
    {
      "bufferView": 0,
      "byteOffset": 432,
      "componentType": 5125,
      "count": 36,
      "type": "SCALAR"
    },
    {
      "bufferView": 2,
      "byteOffset": 2304,
      "componentType": 5126,
      "count": 42,
      "max": [
        5.074184417724609,
        4.671888828277588,
        4.671888828277588
      ],
      "min": [
        0.0,
        -4.671888828277588,
        1.9995684623718262
      ],
      "type": "VEC3"
    },
    {
      "bufferView": 2,
      "byteOffset": 2808,
      "componentType": 5126,
      "count": 42,
      "max": [
        1.0,
        1.0,
        1.0
      ],
      "min": [
        -1.0,
        -1.0,
        -1.0
      ],
      "type": "VEC3"
    },
    {
      "bufferView": 1,
      "byteOffset": 768,
      "componentType": 5126,
      "count": 42,
      "max": [
        1.0,
        1.0
      ],
      "min": [
        0.5,
        0.0
      ],
      "type": "VEC2"
    },
    {
      "bufferView": 0,
      "byteOffset": 576,
      "componentType": 5125,
      "count": 72,
      "type": "SCALAR"
    },
    {
      "bufferView": 2,
      "byteOffset": 3312,
      "componentType": 5126,
      "count": 42,
      "max": [
        5.074184417724609,
        4.671888828277588,
        4.671888828277588
      ],
      "min": [
        0.0,
        -4.671888828277588,
        1.9995684623718262
      ],
      "type": "VEC3"
    },
    {
      "bufferView": 2,
      "byteOffset": 3816,
      "componentType": 5126,
      "count": 42,
      "max": [
        1.0,
        1.0,
        1.0
      ],
      "min": [
        -1.0,
        -1.0,
        -1.0
      ],
      "type": "VEC3"
    },
    {
      "bufferView": 1,
      "byteOffset": 1104,
      "componentType": 5126,
      "count": 42,
      "max": [
        1.0,
        1.0
      ],
      "min": [
        0.5,
        0.0
      ],
      "type": "VEC2"
    },
    {
      "bufferView": 0,
      "byteOffset": 864,
      "componentType": 5125,
      "count": 72,
      "type": "SCALAR"
    },
    {
      "bufferView": 2,
      "byteOffset": 4320,
      "componentType": 5126,
      "count": 42,
      "max": [
        5.074184417724609,
        4.671888828277588,
        4.671888828277588
      ],
      "min": [
        0.0,
        -4.671888828277588,
        1.9995684623718262
      ],
      "type": "VEC3"
    },
    {
      "bufferView": 2,
      "byteOffset": 4824,
      "componentType": 5126,
      "count": 42,
      "max": [
        1.0,
        1.0,
        1.0
      ],
      "min": [
        -1.0,
        -1.0,
        -1.0
      ],
      "type": "VEC3"
    },
    {
      "bufferView": 1,
      "byteOffset": 1440,
      "componentType": 5126,
      "count": 42,
      "max": [
        1.0,
        1.0
      ],
      "min": [
        0.5,
        0.0
      ],
      "type": "VEC2"
    },
    {
      "bufferView": 0,
      "byteOffset": 1152,
      "componentType": 5125,
      "count": 72,
      "type": "SCALAR"
    },
    {
      "bufferView": 2,
      "byteOffset": 5328,
      "componentType": 5126,
      "count": 58,
      "max": [
        45.84914779663086,
        12.5,
        21.299999237060547
      ],
      "min": [
        -45.84914779663086,
        -12.5,
        -21.299999237060547
      ],
      "type": "VEC3"
    },
    {
      "bufferView": 2,
      "byteOffset": 6024,
      "componentType": 5126,
      "count": 58,
      "max": [
        1.0,
        1.0,
        1.0
      ],
      "min": [
        -1.0,
        -1.0,
        -1.0
      ],
      "type": "VEC3"
    },
    {
      "bufferView": 1,
      "byteOffset": 1776,
      "componentType": 5126,
      "count": 58,
      "max": [
        1.0,
        1.0
      ],
      "min": [
        0.0,
        0.0
      ],
      "type": "VEC2"
    },
    {
      "bufferView": 1,
      "byteOffset": 2240,
      "componentType": 5126,
      "count": 58,
      "max": [
        1.0,
        1.0
      ],
      "min": [
        0.0,
        0.0
      ],
      "type": "VEC2"
    },
    {
      "bufferView": 0,
      "byteOffset": 1440,
      "componentType": 5125,
      "count": 150,
      "type": "SCALAR"
    },
    {
      "bufferView": 2,
      "byteOffset": 6720,
      "componentType": 5126,
      "count": 50,
      "max": [
        44.198360443115234,
        11.204410552978516,
        19.574636459350586
      ],
      "min": [
        -44.198360443115234,
        -12.049941062927246,
        -19.574636459350586
      ],
      "type": "VEC3"
    },
    {
      "bufferView": 2,
      "byteOffset": 7320,
      "componentType": 5126,
      "count": 50,
      "max": [
        1.0,
        1.0,
        1.0
      ],
      "min": [
        -1.0,
        0.0,
        -1.0
      ],
      "type": "VEC3"
    },
    {
      "bufferView": 1,
      "byteOffset": 2704,
      "componentType": 5126,
      "count": 50,
      "max": [
        1.0,
        1.0
      ],
      "min": [
        0.0,
        0.0
      ],
      "type": "VEC2"
    },
    {
      "bufferView": 1,
      "byteOffset": 3104,
      "componentType": 5126,
      "count": 50,
      "max": [
        1.0,
        1.0
      ],
      "min": [
        0.0,
        0.0
      ],
      "type": "VEC2"
    },
    {
      "bufferView": 0,
      "byteOffset": 2040,
      "componentType": 5125,
      "count": 126,
      "type": "SCALAR"
    },
    {
      "bufferView": 2,
      "byteOffset": 7920,
      "componentType": 5126,
      "count": 155,
      "max": [
        3.4688570499420166,
        0.8427676558494568,
        1.87028968334198
      ],
      "min": [
        -23.23552131652832,
        -0.8825955390930176,
        -1.87028968334198
      ],
      "type": "VEC3"
    },
    {
      "bufferView": 2,
      "byteOffset": 9780,
      "componentType": 5126,
      "count": 155,
      "max": [
        1.0,
        1.74709746266589e-15,
        0.9961557984352112
      ],
      "min": [
        -1.0,
        -2.0112837566618356e-15,
        -0.9961557984352112
      ],
      "type": "VEC3"
    },
    {
      "bufferView": 1,
      "byteOffset": 3504,
      "componentType": 5126,
      "count": 155,
      "max": [
        1.0,
        0.7572628259658813
      ],
      "min": [
        0.0,
        0.23057937622070313
      ],
      "type": "VEC2"
    },
    {
      "bufferView": 1,
      "byteOffset": 4744,
      "componentType": 5126,
      "count": 155,
      "max": [
        1.0,
        0.7572628259658813
      ],
      "min": [
        0.0,
        0.23057937622070313
      ],
      "type": "VEC2"
    },
    {
      "bufferView": 0,
      "byteOffset": 2544,
      "componentType": 5125,
      "count": 720,
      "type": "SCALAR"
    },
    {
      "bufferView": 2,
      "byteOffset": 11640,
      "componentType": 5126,
      "count": 58,
      "max": [
        45.84914779663086,
        12.5,
        21.299999237060547
      ],
      "min": [
        -45.84914779663086,
        -12.5,
        -21.299999237060547
      ],
      "type": "VEC3"
    },
    {
      "bufferView": 2,
      "byteOffset": 12336,
      "componentType": 5126,
      "count": 58,
      "max": [
        1.0,
        1.0,
        1.0
      ],
      "min": [
        -1.0,
        -1.0,
        -1.0
      ],
      "type": "VEC3"
    },
    {
      "bufferView": 1,
      "byteOffset": 5984,
      "componentType": 5126,
      "count": 58,
      "max": [
        1.0,
        1.0
      ],
      "min": [
        0.0,
        0.0
      ],
      "type": "VEC2"
    },
    {
      "bufferView": 1,
      "byteOffset": 6448,
      "componentType": 5126,
      "count": 58,
      "max": [
        1.0,
        1.0
      ],
      "min": [
        0.0,
        0.0
      ],
      "type": "VEC2"
    },
    {
      "bufferView": 0,
      "byteOffset": 5424,
      "componentType": 5125,
      "count": 150,
      "type": "SCALAR"
    },
    {
      "bufferView": 2,
      "byteOffset": 13032,
      "componentType": 5126,
      "count": 50,
      "max": [
        44.198360443115234,
        11.204410552978516,
        19.574636459350586
      ],
      "min": [
        -44.198360443115234,
        -12.049941062927246,
        -19.574636459350586
      ],
      "type": "VEC3"
    },
    {
      "bufferView": 2,
      "byteOffset": 13632,
      "componentType": 5126,
      "count": 50,
      "max": [
        1.0,
        1.0,
        1.0
      ],
      "min": [
        -1.0,
        0.0,
        -1.0
      ],
      "type": "VEC3"
    },
    {
      "bufferView": 1,
      "byteOffset": 6912,
      "componentType": 5126,
      "count": 50,
      "max": [
        1.0,
        1.0
      ],
      "min": [
        0.0,
        0.0
      ],
      "type": "VEC2"
    },
    {
      "bufferView": 1,
      "byteOffset": 7312,
      "componentType": 5126,
      "count": 50,
      "max": [
        1.0,
        1.0
      ],
      "min": [
        0.0,
        0.0
      ],
      "type": "VEC2"
    },
    {
      "bufferView": 0,
      "byteOffset": 6024,
      "componentType": 5125,
      "count": 126,
      "type": "SCALAR"
    },
    {
      "bufferView": 2,
      "byteOffset": 14232,
      "componentType": 5126,
      "count": 155,
      "max": [
        3.4688570499420166,
        0.8427676558494568,
        1.87028968334198
      ],
      "min": [
        -23.23552131652832,
        -0.8825955390930176,
        -1.87028968334198
      ],
      "type": "VEC3"
    },
    {
      "bufferView": 2,
      "byteOffset": 16092,
      "componentType": 5126,
      "count": 155,
      "max": [
        1.0,
        1.74709746266589e-15,
        0.9961557984352112
      ],
      "min": [
        -1.0,
        -2.0112837566618356e-15,
        -0.9961557984352112
      ],
      "type": "VEC3"
    },
    {
      "bufferView": 1,
      "byteOffset": 7712,
      "componentType": 5126,
      "count": 155,
      "max": [
        1.0,
        0.7572628259658813
      ],
      "min": [
        0.0,
        0.23057937622070313
      ],
      "type": "VEC2"
    },
    {
      "bufferView": 1,
      "byteOffset": 8952,
      "componentType": 5126,
      "count": 155,
      "max": [
        1.0,
        0.7572628259658813
      ],
      "min": [
        0.0,
        0.23057937622070313
      ],
      "type": "VEC2"
    },
    {
      "bufferView": 0,
      "byteOffset": 6528,
      "componentType": 5125,
      "count": 720,
      "type": "SCALAR"
    },
    {
      "bufferView": 2,
      "byteOffset": 17952,
      "componentType": 5126,
      "count": 58,
      "max": [
        45.84914779663086,
        12.5,
        21.299999237060547
      ],
      "min": [
        -45.84914779663086,
        -12.5,
        -21.299999237060547
      ],
      "type": "VEC3"
    },
    {
      "bufferView": 2,
      "byteOffset": 18648,
      "componentType": 5126,
      "count": 58,
      "max": [
        1.0,
        1.0,
        1.0
      ],
      "min": [
        -1.0,
        -1.0,
        -1.0
      ],
      "type": "VEC3"
    },
    {
      "bufferView": 1,
      "byteOffset": 10192,
      "componentType": 5126,
      "count": 58,
      "max": [
        1.0,
        1.0
      ],
      "min": [
        0.0,
        0.0
      ],
      "type": "VEC2"
    },
    {
      "bufferView": 1,
      "byteOffset": 10656,
      "componentType": 5126,
      "count": 58,
      "max": [
        1.0,
        1.0
      ],
      "min": [
        0.0,
        0.0
      ],
      "type": "VEC2"
    },
    {
      "bufferView": 0,
      "byteOffset": 9408,
      "componentType": 5125,
      "count": 150,
      "type": "SCALAR"
    },
    {
      "bufferView": 2,
      "byteOffset": 19344,
      "componentType": 5126,
      "count": 50,
      "max": [
        44.198360443115234,
        11.204410552978516,
        19.574636459350586
      ],
      "min": [
        -44.198360443115234,
        -12.049941062927246,
        -19.574636459350586
      ],
      "type": "VEC3"
    },
    {
      "bufferView": 2,
      "byteOffset": 19944,
      "componentType": 5126,
      "count": 50,
      "max": [
        1.0,
        1.0,
        1.0
      ],
      "min": [
        -1.0,
        0.0,
        -1.0
      ],
      "type": "VEC3"
    },
    {
      "bufferView": 1,
      "byteOffset": 11120,
      "componentType": 5126,
      "count": 50,
      "max": [
        1.0,
        1.0
      ],
      "min": [
        0.0,
        0.0
      ],
      "type": "VEC2"
    },
    {
      "bufferView": 1,
      "byteOffset": 11520,
      "componentType": 5126,
      "count": 50,
      "max": [
        1.0,
        1.0
      ],
      "min": [
        0.0,
        0.0
      ],
      "type": "VEC2"
    },
    {
      "bufferView": 0,
      "byteOffset": 10008,
      "componentType": 5125,
      "count": 126,
      "type": "SCALAR"
    },
    {
      "bufferView": 2,
      "byteOffset": 20544,
      "componentType": 5126,
      "count": 155,
      "max": [
        3.4688570499420166,
        0.8427676558494568,
        1.87028968334198
      ],
      "min": [
        -23.23552131652832,
        -0.8825955390930176,
        -1.87028968334198
      ],
      "type": "VEC3"
    },
    {
      "bufferView": 2,
      "byteOffset": 22404,
      "componentType": 5126,
      "count": 155,
      "max": [
        1.0,
        1.74709746266589e-15,
        0.9961557984352112
      ],
      "min": [
        -1.0,
        -2.0112837566618356e-15,
        -0.9961557984352112
      ],
      "type": "VEC3"
    },
    {
      "bufferView": 1,
      "byteOffset": 11920,
      "componentType": 5126,
      "count": 155,
      "max": [
        1.0,
        0.7572628259658813
      ],
      "min": [
        0.0,
        0.23057937622070313
      ],
      "type": "VEC2"
    },
    {
      "bufferView": 1,
      "byteOffset": 13160,
      "componentType": 5126,
      "count": 155,
      "max": [
        1.0,
        0.7572628259658813
      ],
      "min": [
        0.0,
        0.23057937622070313
      ],
      "type": "VEC2"
    },
    {
      "bufferView": 0,
      "byteOffset": 10512,
      "componentType": 5125,
      "count": 720,
      "type": "SCALAR"
    },
    {
      "bufferView": 2,
      "byteOffset": 24264,
      "componentType": 5126,
      "count": 28,
      "max": [
        48.0,
        39.5,
        24.0
      ],
      "min": [
        -48.0,
        -39.5,
        -24.0
      ],
      "type": "VEC3"
    },
    {
      "bufferView": 2,
      "byteOffset": 24600,
      "componentType": 5126,
      "count": 28,
      "max": [
        1.0,
        1.0,
        1.0
      ],
      "min": [
        -1.0,
        -1.0,
        -1.0
      ],
      "type": "VEC3"
    },
    {
      "bufferView": 1,
      "byteOffset": 14400,
      "componentType": 5126,
      "count": 28,
      "max": [
        1.0,
        1.0
      ],
      "min": [
        0.0,
        0.0
      ],
      "type": "VEC2"
    },
    {
      "bufferView": 0,
      "byteOffset": 13392,
      "componentType": 5125,
      "count": 54,
      "type": "SCALAR"
    },
    {
      "bufferView": 2,
      "byteOffset": 24936,
      "componentType": 5126,
      "count": 20,
      "max": [
        46.1942138671875,
        38.01398849487305,
        20.168933868408203
      ],
      "min": [
        -46.1942138671875,
        -38.01398849487305,
        -23.09710693359375
      ],
      "type": "VEC3"
    },
    {
      "bufferView": 2,
      "byteOffset": 25176,
      "componentType": 5126,
      "count": 20,
      "max": [
        1.0,
        1.0,
        1.0
      ],
      "min": [
        -1.0,
        -1.0,
        -0.0
      ],
      "type": "VEC3"
    },
    {
      "bufferView": 1,
      "byteOffset": 14624,
      "componentType": 5126,
      "count": 20,
      "max": [
        1.0,
        1.0
      ],
      "min": [
        0.0,
        0.0
      ],
      "type": "VEC2"
    },
    {
      "bufferView": 0,
      "byteOffset": 13608,
      "componentType": 5125,
      "count": 30,
      "type": "SCALAR"
    },
    {
      "bufferView": 2,
      "byteOffset": 25416,
      "componentType": 5126,
      "count": 42,
      "max": [
        5.074184417724609,
        4.671888828277588,
        4.671888828277588
      ],
      "min": [
        0.0,
        -4.671888828277588,
        1.9995684623718262
      ],
      "type": "VEC3"
    },
    {
      "bufferView": 2,
      "byteOffset": 25920,
      "componentType": 5126,
      "count": 42,
      "max": [
        1.0,
        1.0,
        1.0
      ],
      "min": [
        -1.0,
        -1.0,
        -1.0
      ],
      "type": "VEC3"
    },
    {
      "bufferView": 1,
      "byteOffset": 14784,
      "componentType": 5126,
      "count": 42,
      "max": [
        1.0,
        1.0
      ],
      "min": [
        0.5,
        0.0
      ],
      "type": "VEC2"
    },
    {
      "bufferView": 0,
      "byteOffset": 13728,
      "componentType": 5125,
      "count": 72,
      "type": "SCALAR"
    }
  ],
  "asset": {
    "extras": {
      "author": "Pavlo (https://sketchfab.com/PavloZub)",
      "license": "CC-BY-4.0 (http://creativecommons.org/licenses/by/4.0/)",
      "source": "https://sketchfab.com/3d-models/nightstand-7e8a0cbbacc045ecafd569dee2d2a881",
      "title": "Nightstand"
    },
    "generator": "Sketchfab-16.64.0",
    "version": "2.0"
  },
  "bufferViews": [
    {
      "buffer": 0,
      "byteLength": 14016,
      "name": "floatBufferViews",
      "target": 34963
    },
    {
      "buffer": 0,
      "byteLength": 15120,
      "byteOffset": 14016,
      "byteStride": 8,
      "name": "floatBufferViews",
      "target": 34962
    },
    {
      "buffer": 0,
      "byteLength": 26424,
      "byteOffset": 29136,
      "byteStride": 12,
      "name": "floatBufferViews",
      "target": 34962
    }
  ],
  "buffers": [
    {
      "byteLength": 55560,
      "uri": "scene.bin"
    }
  ],
  "materials": [
    {
      "doubleSided": true,
      "name": "Cube_1_5__0",
      "pbrMetallicRoughness": {
        "metallicFactor": 0.0,
        "roughnessFactor": 0.6
      }
    },
    {
      "doubleSided": true,
      "name": "Oak_Polished_-_Bright",
      "pbrMetallicRoughness": {
        "baseColorFactor": [
          0.8,
          0.8,
          0.8,
          1.0
        ],
        "metallicFactor": 0.0,
        "roughnessFactor": 0.507542142087309
      }
    },
    {
      "doubleSided": true,
      "name": "Subtle_Wood_01",
      "pbrMetallicRoughness": {
        "baseColorFactor": [
          0.8,
          0.8,
          0.8,
          1.0
        ],
        "metallicFactor": 0.0
      }
    },
    {
      "doubleSided": true,
      "name": "Subtle_Wood_01_0",
      "pbrMetallicRoughness": {
        "baseColorFactor": [
          0.8,
          0.8,
          0.8,
          1.0
        ],
        "metallicFactor": 0.0
      }
    },
    {
      "doubleSided": true,
      "name": "Subtle_Wood_01_1",
      "pbrMetallicRoughness": {
        "baseColorFactor": [
          0.8,
          0.8,
          0.8,
          1.0
        ],
        "metallicFactor": 0.0
      }
    },
    {
      "doubleSided": true,
      "name": "Plastic_Matte",
      "pbrMetallicRoughness": {
        "metallicFactor": 0.0,
        "roughnessFactor": 0.96
      }
    }
  ],
  "meshes": [
    {
      "name": "Cube_7_Oak Polished - Bright_0",
      "primitives": [
        {
          "attributes": {
            "NORMAL": 1,
            "POSITION": 0,
            "TEXCOORD_0": 2
          },
          "indices": 3,
          "material": 1,
          "mode": 4
        }
      ]
    },
    {
      "name": "Cube_6_Oak Polished - Bright_0",
      "primitives": [
        {
          "attributes": {
            "NORMAL": 5,
            "POSITION": 4,
            "TEXCOORD_0": 6
          },
          "indices": 7,
          "material": 1,
          "mode": 4
        }
      ]
    },
    {
      "name": "Cube_5_Oak Polished - Bright_0",
      "primitives": [
        {
          "attributes": {
            "NORMAL": 9,
            "POSITION": 8,
            "TEXCOORD_0": 10
          },
          "indices": 11,
          "material": 1,
          "mode": 4
        }
      ]
    },
    {
      "name": "Cube_4_Oak Polished - Bright_0",
      "primitives": [
        {
          "attributes": {
            "NORMAL": 13,
            "POSITION": 12,
            "TEXCOORD_0": 14
          },
          "indices": 15,
          "material": 1,
          "mode": 4
        }
      ]
    },
    {
      "name": "Cube_3_Oak Polished - Bright_0",
      "primitives": [
        {
          "attributes": {
            "NORMAL": 17,
            "POSITION": 16,
            "TEXCOORD_0": 18
          },
          "indices": 19,
          "material": 1,
          "mode": 4
        }
      ]
    },
    {
      "name": "Cube_2_Oak Polished - Bright_0",
      "primitives": [
        {
          "attributes": {
            "NORMAL": 21,
            "POSITION": 20,
            "TEXCOORD_0": 22
          },
          "indices": 23,
          "material": 1,
          "mode": 4
        }
      ]
    },
    {
      "name": "Cube_1_Oak Polished - Bright_0",
      "primitives": [
        {
          "attributes": {
            "NORMAL": 25,
            "POSITION": 24,
            "TEXCOORD_0": 26
          },
          "indices": 27,
          "material": 1,
          "mode": 4
        }
      ]
    },
    {
      "name": "Cube_Subtle Wood 01_0",
      "primitives": [
        {
          "attributes": {
            "NORMAL": 29,
            "POSITION": 28,
            "TEXCOORD_0": 30,
            "TEXCOORD_1": 31
          },
          "indices": 32,
          "material": 2,
          "mode": 4
        }
      ]
    },
    {
      "name": "Cube_1_2_Subtle Wood 01_0",
      "primitives": [
        {
          "attributes": {
            "NORMAL": 34,
            "POSITION": 33,
            "TEXCOORD_0": 35,
            "TEXCOORD_1": 36
          },
          "indices": 37,
          "material": 2,
          "mode": 4
        }
      ]
    },
    {
      "name": "Cylinder_Subtle Wood 01_0",
      "primitives": [
        {
          "attributes": {
            "NORMAL": 39,
            "POSITION": 38,
            "TEXCOORD_0": 40,
            "TEXCOORD_1": 41
          },
          "indices": 42,
          "material": 2,
          "mode": 4
        }
      ]
    },
    {
      "name": "Cube_2_2_Subtle Wood 01_0",
      "primitives": [
        {
          "attributes": {
            "NORMAL": 44,
            "POSITION": 43,
            "TEXCOORD_0": 45,
            "TEXCOORD_1": 46
          },
          "indices": 47,
          "material": 3,
          "mode": 4
        }
      ]
    },
    {
      "name": "Cube_1_3_Subtle Wood 01_0",
      "primitives": [
        {
          "attributes": {
            "NORMAL": 49,
            "POSITION": 48,
            "TEXCOORD_0": 50,
            "TEXCOORD_1": 51
          },
          "indices": 52,
          "material": 3,
          "mode": 4
        }
      ]
    },
    {
      "name": "Cylinder_2_Subtle Wood 01_0",
      "primitives": [
        {
          "attributes": {
            "NORMAL": 54,
            "POSITION": 53,
            "TEXCOORD_0": 55,
            "TEXCOORD_1": 56
          },
          "indices": 57,
          "material": 3,
          "mode": 4
        }
      ]
    },
    {
      "name": "Cube_3_2_Subtle Wood 01_0",
      "primitives": [
        {
          "attributes": {
            "NORMAL": 59,
            "POSITION": 58,
            "TEXCOORD_0": 60,
            "TEXCOORD_1": 61
          },
          "indices": 62,
          "material": 4,
          "mode": 4
        }
      ]
    },
    {
      "name": "Cube_1_4_Subtle Wood 01_0",
      "primitives": [
        {
          "attributes": {
            "NORMAL": 64,
            "POSITION": 63,
            "TEXCOORD_0": 65,
            "TEXCOORD_1": 66
          },
          "indices": 67,
          "material": 4,
          "mode": 4
        }
      ]
    },
    {
      "name": "Cylinder_3_Subtle Wood 01_0",
      "primitives": [
        {
          "attributes": {
            "NORMAL": 69,
            "POSITION": 68,
            "TEXCOORD_0": 70,
            "TEXCOORD_1": 71
          },
          "indices": 72,
          "material": 4,
          "mode": 4
        }
      ]
    },
    {
      "name": "Cube_4_2_Plastic Matte_0",
      "primitives": [
        {
          "attributes": {
            "NORMAL": 74,
            "POSITION": 73,
            "TEXCOORD_0": 75
          },
          "indices": 76,
          "material": 5,
          "mode": 4
        }
      ]
    },
    {
      "name": "Cube_1_5__0",
      "primitives": [
        {
          "attributes": {
            "NORMAL": 78,
            "POSITION": 77,
            "TEXCOORD_0": 79
          },
          "indices": 80,
          "material": 0,
          "mode": 4
        }
      ]
    },
    {
      "name": "Cube_5_2_Oak Polished - Bright_0",
      "primitives": [
        {
          "attributes": {
            "NORMAL": 82,
            "POSITION": 81,
            "TEXCOORD_0": 83
          },
          "indices": 84,
          "material": 1,
          "mode": 4
        }
      ]
    }
  ],
  "nodes": [
    {
      "children": [
        1
      ],
      "matrix": [
        1.0,
        0.0,
        0.0,
        0.0,
        0.0,
        2.220446049250313e-16,
        -1.0,
        0.0,
        0.0,
        1.0,
        2.220446049250313e-16,
        0.0,
        0.0,
        0.0,
        0.0,
        1.0
      ],
      "name": "Sketchfab_model"
    },
    {
      "children": [
        2
      ],
      "matrix": [
        0.009999999776482582,
        0.0,
        0.0,
        0.0,
        0.0,
        0.0,
        0.009999999776482582,
        0.0,
        0.0,
        -0.009999999776482582,
        0.0,
        0.0,
        0.0,
        0.0,
        0.0,
        1.0
      ],
      "name": "c28fef69d19b44e4bd69f756875620c8.fbx"
    },
    {
      "children": [
        3,
        5
      ],
      "name": "RootNode"
    },
    {
      "children": [
        4
      ],
      "matrix": [
        -0.6667539179723689,
        -0.3329841223496841,
        -0.6667539179723695,
        0.0,
        -0.23545533094091287,
        0.9429324335619231,
        -0.23545533094091242,
        0.0,
        0.7071067811865474,
        4.0245584642661925e-16,
        -0.707106781186547,
        0.0,
        600.0,
        300.0,
        600.0,
        1.0
      ],
      "name": "CINEMA_4D_Editor"
    },
    {
      "name": "Object_4"
    },
    {
      "children": [
        6,
        8,
        10,
        12,
        14,
        16,
        18,
        20,
        50
      ],
      "matrix": [
        0.0002779292504935249,
        0.0,
        -0.9999999613776651,
        0.0,
        0.0,
        1.0,
        0.0,
        0.0,
        0.9999999613776651,
        0.0,
        0.0002779292504935249,
        0.0,
        -145.57406616210938,
        34.32538604736328,
        209.05746459960938,
        1.0
      ],
      "name": "komod"
    },
    {
      "children": [
        7
      ],
      "matrix": [
        2.220446049250313e-16,
        -1.232595164407831e-32,
        -1.0,
        0.0,
        1.2249871643143594e-16,
        1.0,
        1.232595164407831e-32,
        0.0,
        1.0,
        -1.2249871643143594e-16,
        2.220446049250313e-16,
        0.0,
        47.34951400756836,
        -0.5729319453239441,
        0.15057484805583954,
        1.0
      ],
      "name": "Cube_7"
    },
    {
      "mesh": 0,
      "name": "Cube_7_Oak Polished - Bright_0"
    },
    {
      "children": [
        9
      ],
      "matrix": [
        2.220446049250313e-16,
        -1.232595164407831e-32,
        -1.0,
        0.0,
        1.2249871643143594e-16,
        1.0,
        1.232595164407831e-32,
        0.0,
        1.0,
        -1.2249871643143594e-16,
        2.220446049250313e-16,
        0.0,
        -46.35576248168945,
        -0.5729319453239441,
        0.15057484805583954,
        1.0
      ],
      "name": "Cube_6"
    },
    {
      "mesh": 1,
      "name": "Cube_6_Oak Polished - Bright_0"
    },
    {
      "children": [
        11
      ],
      "matrix": [
        1.0,
        0.0,
        0.0,
        0.0,
        0.0,
        1.0,
        0.0,
        0.0,
        0.0,
        0.0,
        1.0,
        0.0,
        0.22993122041225433,
        -0.5729319453239441,
        -22.880157470703125,
        1.0
      ],
      "name": "Cube_5"
    },
    {
      "mesh": 2,
      "name": "Cube_5_Oak Polished - Bright_0"
    },
    {
      "children": [
        13
      ],
      "matrix": [
        1.0,
        0.0,
        0.0,
        0.0,
        0.0,
        1.0,
        0.0,
        0.0,
        0.0,
        0.0,
        1.0,
        0.0,
        0.22993122041225433,
        -0.5729319453239441,
        22.733158111572266,
        1.0
      ],
      "name": "Cube_4"
    },
    {
      "mesh": 3,
      "name": "Cube_4_Oak Polished - Bright_0"
    },
    {
      "children": [
        15
      ],
      "matrix": [
        1.0,
        0.0,
        0.0,
        0.0,
        0.0,
        1.0,
        0.0,
        0.0,
        0.0,
        0.0,
        1.0,
        0.0,
        -47.34563064575195,
        -3.2445826530456543,
        -25.920005798339844,
        1.0
      ],
      "name": "Cube_3"
    },
    {
      "mesh": 4,
      "name": "Cube_3_Oak Polished - Bright_0"
    },
    {
      "children": [
        17
      ],
      "matrix": [
        -1.0,
        1.2246467991473532e-16,
        -2.220446049250313e-16,
        0.0,
        1.2246467991473537e-16,
        1.0,
        -1.2246467991473532e-16,
        0.0,
        2.220446049250313e-16,
        -1.2246467991473537e-16,
        -1.0,
        0.0,
        48.30385971069336,
        -3.2445826530456543,
        -19.173616409301758,
        1.0
      ],
      "name": "Cube_2"
    },
    {
      "mesh": 5,
      "name": "Cube_2_Oak Polished - Bright_0"
    },
    {
      "children": [
        19
      ],
      "matrix": [
        -1.0,
        1.2246467991473532e-16,
        -2.220446049250313e-16,
        0.0,
        1.2246467991473537e-16,
        1.0,
        -1.2246467991473532e-16,
        0.0,
        2.220446049250313e-16,
        -1.2246467991473537e-16,
        -1.0,
        0.0,
        48.30385971069336,
        -3.2445826530456543,
        25.736948013305664,
        1.0
      ],
      "name": "Cube_1"
    },
    {
      "mesh": 6,
      "name": "Cube_1_Oak Polished - Bright_0"
    },
    {
      "children": [
        21,
        29,
        37,
        45
      ],
      "matrix": [
        1.0,
        0.0,
        0.0,
        0.0,
        0.0,
        1.0,
        0.0,
        0.0,
        0.0,
        0.0,
        1.0,
        0.0,
        -3.3700687885284424,
        15.270058631896973,
        0.11922182887792587,
        1.0
      ],
      "name": "werh"
    },
    {
      "children": [
        22,
        27
      ],
      "matrix": [
        1.0,
        0.0,
        0.0,
        0.0,
        0.0,
        1.0,
        0.0,
        0.0,
        0.0,
        0.0,
        1.0,
        0.0,
        0.0,
        31.55842399597168,
        0.0,
        1.0
      ],
      "name": "Boole_3"
    },
    {
      "children": [
        23,
        25
      ],
      "name": "Boole_1"
    },
    {
      "children": [
        24
      ],
      "matrix": [
        1.0,
        0.0,
        0.0,
        0.0,
        0.0,
        1.0,
        0.0,
        0.0,
        0.0,
        0.0,
        1.0,
        0.0,
        3.9040474891662598,
        19.321779251098633,
        2.5096335411071777,
        1.0
      ],
      "name": "Cube"
    },
    {
      "mesh": 7,
      "name": "Cube_Subtle Wood 01_0"
    },
    {
      "children": [
        26
      ],
      "matrix": [
        1.0,
        0.0,
        0.0,
        0.0,
        0.0,
        1.0,
        0.0,
        0.0,
        0.0,
        0.0,
        1.0,
        0.0,
        3.9040474891662598,
        20.617368698120117,
        2.5096335411071777,
        1.0
      ],
      "name": "Cube_1_2"
    },
    {
      "mesh": 8,
      "name": "Cube_1_2_Subtle Wood 01_0"
    },
    {
      "children": [
        28
      ],
      "matrix": [
        1.0,
        1.665334536938042e-16,
        -2.2204460492503126e-16,
        0.0,
        2.220446049250978e-16,
        -3.994582442601313e-13,
        1.0,
        0.0,
        1.665334536937155e-16,
        -1.0,
        -3.994582442601313e-13,
        0.0,
        12.946468353271484,
        27.44278335571289,
        22.96686553955078,
        1.0
      ],
      "name": "Cylinder"
    },
    {
      "mesh": 9,
      "name": "Cylinder_Subtle Wood 01_0"
    },
    {
      "children": [
        30,
        35
      ],
      "matrix": [
        1.0,
        0.0,
        0.0,
        0.0,
        0.0,
        1.0,
        0.0,
        0.0,
        0.0,
        0.0,
        1.0,
        0.0,
        0.0,
        6.316004276275635,
        0.0,
        1.0
      ],
      "name": "Boole_1_2"
    },
    {
      "children": [
        31,
        33
      ],
      "name": "Boole_1_3"
    },
    {
      "children": [
        32
      ],
      "matrix": [
        1.0,
        0.0,
        0.0,
        0.0,
        0.0,
        1.0,
        0.0,
        0.0,
        0.0,
        0.0,
        1.0,
        0.0,
        3.9040474891662598,
        19.321779251098633,
        2.5096335411071777,
        1.0
      ],
      "name": "Cube_2_2"
    },
    {
      "mesh": 10,
      "name": "Cube_2_2_Subtle Wood 01_0"
    },
    {
      "children": [
        34
      ],
      "matrix": [
        1.0,
        0.0,
        0.0,
        0.0,
        0.0,
        1.0,
        0.0,
        0.0,
        0.0,
        0.0,
        1.0,
        0.0,
        3.9040474891662598,
        20.617368698120117,
        2.5096335411071777,
        1.0
      ],
      "name": "Cube_1_3"
    },
    {
      "mesh": 11,
      "name": "Cube_1_3_Subtle Wood 01_0"
    },
    {
      "children": [
        36
      ],
      "matrix": [
        1.0,
        1.665334536938042e-16,
        -2.2204460492503126e-16,
        0.0,
        2.220446049250978e-16,
        -3.994582442601313e-13,
        1.0,
        0.0,
        1.665334536937155e-16,
        -1.0,
        -3.994582442601313e-13,
        0.0,
        12.946468353271484,
        27.44278335571289,
        22.96686553955078,
        1.0
      ],
      "name": "Cylinder_2"
    },
    {
      "mesh": 12,
      "name": "Cylinder_2_Subtle Wood 01_0"
    },
    {
      "children": [
        38,
        43
      ],
      "matrix": [
        1.0,
        0.0,
        0.0,
        0.0,
        0.0,
        1.0,
        0.0,
        0.0,
        0.0,
        0.0,
        1.0,
        0.0,
        0.0,
        -19.03143882751465,
        0.0,
        1.0
      ],
      "name": "Boole_2"
    },
    {
      "children": [
        39,
        41
      ],
      "name": "Boole_1_4"
    },
    {
      "children": [
        40
      ],
      "matrix": [
        1.0,
        0.0,
        0.0,
        0.0,
        0.0,
        1.0,
        0.0,
        0.0,
        0.0,
        0.0,
        1.0,
        0.0,
        3.9040474891662598,
        19.321779251098633,
        2.5096335411071777,
        1.0
      ],
      "name": "Cube_3_2"
    },
    {
      "mesh": 13,
      "name": "Cube_3_2_Subtle Wood 01_0"
    },
    {
      "children": [
        42
      ],
      "matrix": [
        1.0,
        0.0,
        0.0,
        0.0,
        0.0,
        1.0,
        0.0,
        0.0,
        0.0,
        0.0,
        1.0,
        0.0,
        3.9040474891662598,
        20.617368698120117,
        2.5096335411071777,
        1.0
      ],
      "name": "Cube_1_4"
    },
    {
      "mesh": 14,
      "name": "Cube_1_4_Subtle Wood 01_0"
    },
    {
      "children": [
        44
      ],
      "matrix": [
        1.0,
        1.665334536938042e-16,
        -2.2204460492503126e-16,
        0.0,
        2.220446049250978e-16,
        -3.994582442601313e-13,
        1.0,
        0.0,
        1.665334536937155e-16,
        -1.0,
        -3.994582442601313e-13,
        0.0,
        12.946468353271484,
        27.44278335571289,
        22.96686553955078,
        1.0
      ],
      "name": "Cylinder_3"
    },
    {
      "mesh": 15,
      "name": "Cylinder_3_Subtle Wood 01_0"
    },
    {
      "children": [
        46,
        48
      ],
      "matrix": [
        1.0,
        0.0,
        0.0,
        0.0,
        0.0,
        1.0,
        0.0,
        0.0,
        0.0,
        0.0,
        1.0,
        0.0,
        0.0,
        -18.84299087524414,
        0.0,
        1.0
      ],
      "name": "Boole"
    },
    {
      "children": [
        47
      ],
      "matrix": [
        1.0,
        0.0,
        0.0,
        0.0,
        0.0,
        1.0,
        0.0,
        0.0,
        0.0,
        0.0,
        1.0,
        0.0,
        3.8717262744903564,
        44.5,
        -0.1973668336868286,
        1.0
      ],
      "name": "Cube_4_2"
    },
    {
      "mesh": 16,
      "name": "Cube_4_2_Plastic Matte_0"
    },
    {
      "children": [
        49
      ],
      "matrix": [
        1.0,
        0.0,
        0.0,
        0.0,
        0.0,
        1.0,
        0.0,
        0.0,
        0.0,
        0.0,
        1.0,
        0.0,
        3.8717262744903564,
        44.5,
        3.6336987018585205,
        1.0
      ],
      "name": "Cube_1_5"
    },
    {
      "mesh": 17,
      "name": "Cube_1_5__0"
    },
    {
      "children": [
        51
      ],
      "matrix": [
        1.0,
        0.0,
        0.0,
        0.0,
        0.0,
        1.0,
        0.0,
        0.0,
        0.0,
        0.0,
        1.0,
        0.0,
        -47.34563064575195,
        -3.2445826530456543,
        19.083301544189453,
        1.0
      ],
      "name": "Cube_5_2"
    },
    {
      "mesh": 18,
      "name": "Cube_5_2_Oak Polished - Bright_0"
    }
  ],
  "scene": 0,
  "scenes": [
    {
      "name": "Sketchfab_Scene",
      "nodes": [
        0
      ]
    }
  ]
}
